<svg width="68" height="19" viewBox="0 0 68 19" fill="none" xmlns="http://www.w3.org/2000/svg">
<path d="M54.59 2.59C54.8223 2.35631 55.1088 2.18364 55.4239 2.08734C55.739 1.99104 56.073 1.97408 56.3963 2.03799C56.7195 2.10189 57.022 2.24468 57.2768 2.45364C57.5315 2.66261 57.7307 2.93129 57.8566 3.23579C57.9825 3.54029 58.0313 3.87119 57.9985 4.19906C57.9657 4.52693 57.8524 4.84162 57.6687 5.11516C57.4849 5.38869 57.2365 5.61259 56.9454 5.76696C56.6542 5.92133 56.3295 6.00138 56 6H47M57.59 17.41C57.8223 17.6437 58.1088 17.8164 58.4239 17.9127C58.739 18.009 59.073 18.0259 59.3963 17.962C59.7195 17.8981 60.022 17.7553 60.2768 17.5464C60.5315 17.3374 60.7307 17.0687 60.8566 16.7642C60.9825 16.4597 61.0313 16.1288 60.9985 15.8009C60.9657 15.4731 60.8524 15.1584 60.6687 14.8848C60.4849 14.6113 60.2365 14.3874 59.9454 14.233C59.6542 14.0787 59.3295 13.9986 59 14H47M62.73 5.73C63.0208 5.43988 63.3787 5.22591 63.7719 5.10701C64.1652 4.98811 64.5816 4.96794 64.9845 5.04828C65.3874 5.12863 65.7642 5.30702 66.0817 5.56767C66.3993 5.82832 66.6477 6.1632 66.805 6.54269C66.9623 6.92218 67.0236 7.33459 66.9836 7.74344C66.9436 8.1523 66.8035 8.54499 66.5756 8.8868C66.3477 9.2286 66.0391 9.50898 65.6771 9.70314C65.3151 9.89731 64.9108 9.99926 64.5 10H47" stroke="black" stroke-width="2" stroke-linecap="round" stroke-linejoin="round"/>
<path d="M1.4688 5.055H4.1004V12.7968H8.3385V15H1.4688V5.055ZM10.1838 12.7968H12.4482V7.2582H10.1838V5.055H17.3442V7.2582H15.0798V12.7968H17.3442V15H10.1838V12.7968ZM19.6638 5.055H26.3958V7.2582H22.2954V8.8188H25.7838V11.022H22.2954V12.7968H26.5488V15H19.6638V5.055ZM27.5833 5.055H30.3679L31.4083 9.4002C31.5511 9.9306 31.6735 10.4559 31.7755 10.9761C31.8775 11.4861 31.9999 12.0114 32.1427 12.552H32.2039C32.3467 12.0114 32.4691 11.4861 32.5711 10.9761C32.6833 10.4559 32.8057 9.9306 32.9383 9.4002L33.9481 5.055H36.6409L33.7033 15H30.5209L27.5833 5.055ZM38.0119 5.055H44.7439V7.2582H40.6435V8.8188H44.1319V11.022H40.6435V12.7968H44.8969V15H38.0119V5.055Z" fill="black"/>
</svg>
