<svg width="64" height="64" viewBox="0 0 64 64" fill="none" xmlns="http://www.w3.org/2000/svg">
<rect x="1" y="1" width="62" height="62" stroke="#292F33" stroke-width="2"/>
<path d="M11.1289 55.8818H16.5605L16.1914 58H8.18457L10.4082 45.2031H12.9834L11.1289 55.8818ZM20.4717 58H17.8965L20.1113 45.2031H22.6865L20.4717 58ZM31.3613 52.4541H26.457L25.8594 55.8818H31.625L31.2559 58H22.915L25.1387 45.2031H33.4619L33.084 47.3389H27.3447L26.8086 50.3887H31.7305L31.3613 52.4541ZM37.9707 54.8008L42.2773 45.2031H45.2305L38.9111 58H36.2217L33.9189 45.2031H36.6875L37.9707 54.8008ZM52.7891 52.4541H47.8848L47.2871 55.8818H53.0527L52.6836 58H44.3428L46.5664 45.2031H54.8896L54.5117 47.3389H48.7725L48.2363 50.3887H53.1582L52.7891 52.4541Z" fill="#292F33"/>
<path d="M27.7806 10.0693C28.2023 9.64579 28.7224 9.33282 29.2945 9.15827C29.8667 8.98373 30.4732 8.953 31.0601 9.06883C31.647 9.18466 32.1961 9.44345 32.6587 9.8222C33.1212 10.201 33.4829 10.6879 33.7115 11.2398C33.9401 11.7918 34.0286 12.3915 33.969 12.9858C33.9095 13.58 33.7038 14.1504 33.3702 14.6462C33.0366 15.142 32.5855 15.5478 32.057 15.8276C31.5284 16.1074 30.9388 16.2525 30.3406 16.25H14M33.2274 36.9307C33.6492 37.3542 34.1693 37.6672 34.7414 37.8417C35.3135 38.0163 35.92 38.047 36.5069 37.9312C37.0938 37.8153 37.643 37.5565 38.1055 37.1778C38.5681 36.799 38.9298 36.3121 39.1584 35.7602C39.387 35.2082 39.4754 34.6085 39.4159 34.0142C39.3563 33.42 39.1506 32.8496 38.8171 32.3538C38.4835 31.858 38.0324 31.4522 37.5038 31.1724C36.9753 30.8926 36.3857 30.7475 35.7874 30.75H14M42.5597 15.7606C43.0878 15.2348 43.7375 14.847 44.4514 14.6314C45.1654 14.4159 45.9215 14.3794 46.653 14.525C47.3844 14.6706 48.0687 14.994 48.6452 15.4664C49.2217 15.9388 49.6727 16.5458 49.9583 17.2336C50.2439 17.9214 50.3553 18.6689 50.2827 19.41C50.2101 20.151 49.9556 20.8628 49.5419 21.4823C49.1281 22.1018 48.5678 22.61 47.9105 22.962C47.2532 23.3139 46.5192 23.4987 45.7733 23.5H14" stroke="#1E90C1" stroke-width="3.63043" stroke-linecap="round" stroke-linejoin="round"/>
</svg>
